<svg xmlns="http://www.w3.org/2000/svg" xmlns:xlink="http://www.w3.org/1999/xlink" viewBox="0 0 1000 1000"><defs><style>.cls-1,.cls-42{fill:#fff;}.cls-2{fill:#fefefe;}.cls-3{fill:#fdfdfd;}.cls-4{fill:#fcfcfc;}.cls-5{fill:#fbfbfb;}.cls-6{fill:#fafafa;}.cls-7{fill:#f9f9f9;}.cls-8{fill:#f8f8f8;}.cls-9{fill:#f7f7f7;}.cls-10{fill:#f6f6f6;}.cls-11{fill:#f5f5f5;}.cls-12{fill:#f5f4f4;}.cls-13{fill:#f4f4f4;}.cls-14{fill:#f3f3f3;}.cls-15{fill:#f2f2f2;}.cls-16{fill:#f1f1f1;}.cls-17{fill:#f0f0f0;}.cls-18{fill:#f0efef;}.cls-19{fill:#efefef;}.cls-20{fill:#eee;}.cls-21{fill:#ededed;}.cls-22{fill:#ececec;}.cls-23{fill:#ebebeb;}.cls-24{fill:#ebeaea;}.cls-25{fill:#eaeaea;}.cls-26{fill:#e9e9e9;}.cls-27{fill:#e8e8e8;}.cls-28{fill:#e7e7e7;}.cls-29{fill:#e6e6e6;}.cls-30{fill:#e6e5e5;}.cls-31{fill:#e5e5e5;}.cls-32{fill:#e4e4e4;}.cls-33{fill:#e3e3e3;}.cls-34{fill:url(#linear-gradient);}.cls-35{fill:#202a4f;}.cls-36{fill:#c5c5c4;}.cls-37{fill:#cdcccc;}.cls-38{fill:#ffe716;}.cls-39{fill:#369980;}.cls-40{fill:#e8471e;}.cls-41{fill:#ffdb16;}.cls-42{opacity:0.41;}</style><linearGradient id="linear-gradient" x1="496.92" y1="662.07" x2="496.92" y2="415.47" gradientUnits="userSpaceOnUse"><stop offset="0" stop-color="#c00d0d"/><stop offset="1" stop-color="#e30613"/></linearGradient></defs><g id="Laag_2" data-name="Laag 2"><ellipse class="cls-1" cx="496.92" cy="702.02" rx="112.5" ry="16.69"/><ellipse class="cls-2" cx="496.92" cy="702.02" rx="110.11" ry="16.33"/><ellipse class="cls-2" cx="496.92" cy="702.02" rx="107.72" ry="15.98"/><path class="cls-3" d="M496.92,686.4c58.18,0,105.33,7,105.33,15.62s-47.15,15.62-105.33,15.62-105.33-7-105.33-15.62S438.75,686.4,496.92,686.4Z"/><path class="cls-4" d="M496.92,686.75c56.86,0,102.94,6.84,102.94,15.27s-46.08,15.27-102.94,15.27S394,710.45,394,702,440.07,686.75,496.92,686.75Z"/><path class="cls-4" d="M496.92,687.11c55.53,0,100.55,6.67,100.55,14.91s-45,14.92-100.55,14.92S396.37,710.26,396.37,702,441.39,687.11,496.92,687.11Z"/><path class="cls-5" d="M496.92,687.46c54.21,0,98.16,6.52,98.16,14.56s-44,14.56-98.16,14.56-98.15-6.52-98.15-14.56S442.71,687.46,496.92,687.46Z"/><path class="cls-6" d="M496.92,687.81c52.89,0,95.77,6.37,95.77,14.21s-42.88,14.21-95.77,14.21-95.76-6.37-95.76-14.21S444,687.81,496.92,687.81Z"/><path class="cls-7" d="M496.92,688.17c51.57,0,93.38,6.2,93.38,13.85s-41.81,13.85-93.38,13.85-93.37-6.2-93.37-13.85S445.35,688.17,496.92,688.17Z"/><path class="cls-7" d="M496.92,688.52c50.25,0,91,6.05,91,13.5s-40.74,13.5-91,13.5-91-6-91-13.5S446.67,688.52,496.92,688.52Z"/><path class="cls-8" d="M496.92,688.88c48.93,0,88.6,5.88,88.6,13.14s-39.67,13.14-88.6,13.14-88.59-5.88-88.59-13.14S448,688.88,496.92,688.88Z"/><path class="cls-9" d="M496.92,689.23c47.61,0,86.21,5.73,86.21,12.79s-38.6,12.79-86.21,12.79-86.2-5.73-86.2-12.79S449.31,689.23,496.92,689.23Z"/><path class="cls-9" d="M496.92,689.59c46.29,0,83.81,5.56,83.81,12.43s-37.52,12.43-83.81,12.43-83.81-5.57-83.81-12.43S450.64,689.59,496.92,689.59Z"/><path class="cls-10" d="M496.92,689.94c45,0,81.42,5.41,81.42,12.08s-36.45,12.08-81.42,12.08S415.5,708.69,415.5,702,452,689.94,496.92,689.94Z"/><path class="cls-11" d="M496.92,690.3c43.65,0,79,5.25,79,11.72s-35.38,11.72-79,11.72-79-5.25-79-11.72S453.28,690.3,496.92,690.3Z"/><path class="cls-12" d="M496.92,690.65c42.33,0,76.64,5.09,76.64,11.37s-34.31,11.37-76.64,11.37S420.28,708.3,420.28,702,454.6,690.65,496.92,690.65Z"/><path class="cls-13" d="M496.92,691c41,0,74.25,4.93,74.25,11s-33.24,11-74.25,11-74.24-4.93-74.24-11S455.92,691,496.92,691Z"/><path class="cls-14" d="M496.92,691.36c39.69,0,71.86,4.77,71.86,10.66s-32.17,10.66-71.86,10.66S425.07,707.9,425.07,702,457.24,691.36,496.92,691.36Z"/><path class="cls-15" d="M496.92,691.72c38.37,0,69.47,4.61,69.47,10.3s-31.1,10.3-69.47,10.3-69.46-4.61-69.46-10.3S458.56,691.72,496.92,691.72Z"/><path class="cls-15" d="M496.92,692.07C534,692.07,564,696.52,564,702s-30,10-67.08,10-67.07-4.46-67.07-10S459.88,692.07,496.92,692.07Z"/><path class="cls-16" d="M496.92,692.43c35.73,0,64.69,4.29,64.69,9.59s-29,9.59-64.69,9.59-64.68-4.29-64.68-9.59S461.2,692.43,496.92,692.43Z"/><path class="cls-17" d="M496.92,692.78c34.41,0,62.3,4.14,62.3,9.24s-27.89,9.24-62.3,9.24-62.29-4.14-62.29-9.24S462.52,692.78,496.92,692.78Z"/><path class="cls-18" d="M496.92,693.14c33.09,0,59.91,4,59.91,8.88s-26.82,8.89-59.91,8.89-59.9-4-59.9-8.89S463.84,693.14,496.92,693.14Z"/><path class="cls-19" d="M496.92,693.49c31.77,0,57.51,3.82,57.51,8.53s-25.74,8.53-57.51,8.53-57.51-3.82-57.51-8.53S465.16,693.49,496.92,693.49Z"/><path class="cls-20" d="M496.92,693.84c30.45,0,55.12,3.66,55.12,8.18s-24.67,8.18-55.12,8.18S441.8,706.53,441.8,702,466.48,693.84,496.92,693.84Z"/><path class="cls-21" d="M496.92,694.2c29.12,0,52.73,3.5,52.73,7.82s-23.61,7.82-52.73,7.82-52.73-3.5-52.73-7.82S467.8,694.2,496.92,694.2Z"/><path class="cls-21" d="M496.92,694.55c27.8,0,50.34,3.35,50.34,7.47s-22.54,7.47-50.34,7.47-50.34-3.35-50.34-7.47S469.12,694.55,496.92,694.55Z"/><path class="cls-22" d="M496.92,694.91c26.48,0,47.95,3.18,47.95,7.11s-21.47,7.11-47.95,7.11S449,706,449,702,470.44,694.91,496.92,694.91Z"/><path class="cls-23" d="M496.92,695.26c25.16,0,45.56,3,45.56,6.76s-20.4,6.76-45.56,6.76-45.55-3-45.55-6.76S471.76,695.26,496.92,695.26Z"/><path class="cls-24" d="M496.92,695.62c23.84,0,43.17,2.86,43.17,6.4s-19.33,6.4-43.17,6.4-43.16-2.87-43.16-6.4S473.08,695.62,496.92,695.62Z"/><path class="cls-25" d="M496.92,696c22.52,0,40.78,2.71,40.78,6s-18.26,6.05-40.78,6.05-40.77-2.71-40.77-6.05S474.4,696,496.92,696Z"/><path class="cls-26" d="M496.92,696.33c21.2,0,38.39,2.54,38.39,5.69s-17.19,5.69-38.39,5.69-38.38-2.55-38.38-5.69S475.72,696.33,496.92,696.33Z"/><path class="cls-27" d="M496.92,696.68c19.88,0,36,2.39,36,5.34s-16.12,5.34-36,5.34-36-2.39-36-5.34S477.05,696.68,496.92,696.68Z"/><path class="cls-27" d="M496.92,697c18.56,0,33.61,2.23,33.61,5s-15,5-33.61,5-33.6-2.23-33.6-5S478.37,697,496.92,697Z"/><path class="cls-28" d="M496.92,697.39c17.24,0,31.21,2.07,31.21,4.63s-14,4.63-31.21,4.63-31.21-2.08-31.21-4.63S479.69,697.39,496.92,697.39Z"/><path class="cls-29" d="M496.92,697.75c15.92,0,28.82,1.91,28.82,4.27s-12.9,4.27-28.82,4.27S468.1,704.38,468.1,702,481,697.75,496.92,697.75Z"/><path class="cls-30" d="M496.92,698.1c14.6,0,26.43,1.75,26.43,3.92s-11.83,3.92-26.43,3.92-26.43-1.76-26.43-3.92S482.33,698.1,496.92,698.1Z"/><path class="cls-31" d="M496.92,698.46c13.28,0,24,1.59,24,3.56s-10.76,3.57-24,3.57-24-1.6-24-3.57S483.65,698.46,496.92,698.46Z"/><path class="cls-32" d="M496.92,698.81c12,0,21.65,1.43,21.65,3.21s-9.69,3.21-21.65,3.21-21.64-1.44-21.64-3.21S485,698.81,496.92,698.81Z"/><path class="cls-33" d="M516.18,702c0,1.58-8.62,2.86-19.26,2.86s-19.25-1.28-19.25-2.86,8.62-2.85,19.25-2.85S516.18,700.44,516.18,702Z"/><path class="cls-34" d="M496.92,415.47s-93.05,72.07-93.05,158.2c0,51.39,41.66,88.4,93.05,88.4s93.06-37,93.06-88.4C590,487.54,496.92,415.47,496.92,415.47Zm43.4,171.36H511.39v28.93H482.46V586.83H453.53V557.9h28.93V529h28.93V557.9h28.93Z"/></g><g id="Laag_1" data-name="Laag 1"><rect class="cls-15" x="190.44" y="269.11" width="616.74" height="31.13"/><path class="cls-35" d="M853.88,139.55H146.12a14.08,14.08,0,0,0-14,14v763.1a14,14,0,0,0,14,13.89H853.88a14,14,0,0,0,14-13.89V153.53A14.07,14.07,0,0,0,853.88,139.55ZM190.44,215.8H807.18V692.43H190.44ZM328.8,775.63H188.07V730.25H328.8ZM814.3,887.42H565.13V733.77H814.3Z"/><rect class="cls-36" x="565.13" y="733.77" width="249.17" height="153.65"/><rect class="cls-37" x="188.07" y="730.25" width="140.73" height="45.38"/><rect class="cls-15" x="228.79" y="669.15" width="542.4" height="23.27"/><path class="cls-38" d="M511.31,254.42H483.42c0-5.89-.18-11.61-.35-17.15s-.26-10.82-.35-16.1c-.09-1.76-.18-3.6-.18-5.37h28c0,1.5,0,3,.09,4.49.18,5.63.26,11.17.44,17Q511.31,245.58,511.31,254.42Z"/><path class="cls-38" d="M762.46,139.55H727C710.77,119,693.74,98.48,667.06,86.48c-46.94-21.09-117.89-1.41-142.9,39.94-2.64,4.47-5,8.81-7.12,13.13H486.6A191.84,191.84,0,0,1,500.14,112C533,58.12,617.89,33.81,678.5,61.05c34.65,15.51,55.18,41.77,73.33,65.09C755.47,130.75,759,135.23,762.46,139.55Z"/><rect class="cls-1" x="582.03" y="752.98" width="61.1" height="28.52"/><rect class="cls-1" x="659.44" y="752.98" width="61.11" height="28.52"/><rect class="cls-39" x="736.85" y="752.98" width="61.11" height="28.52"/><rect class="cls-1" x="582.03" y="796.63" width="61.1" height="28.53"/><rect class="cls-1" x="659.44" y="796.63" width="61.11" height="28.53"/><rect class="cls-40" x="736.85" y="796.63" width="61.11" height="28.53"/><rect class="cls-41" x="582.03" y="840.28" width="138.52" height="28.52"/><polygon class="cls-35" points="603.23 244.69 603.23 272.91 578.85 314.15 534.01 314.15 534.01 370.79 496.02 408.66 458.15 370.79 458.15 314.15 414.89 314.15 390.61 272.91 390.61 244.69 603.23 244.69"/><polygon class="cls-42" points="603.16 244.66 603.16 272.86 578.89 314.11 533.93 314.11 533.93 370.74 496.07 408.51 496.07 244.66 603.16 244.66"/></g></svg>